<svg xmlns="http://www.w3.org/2000/svg" width="27.95" height="30.496" viewBox="0 0 27.95 30.496">
  <path id="moon" d="M31.145,27.543c-.23.008-.461.016-.691.016a14,14,0,0,1-10.068-4.24,14.466,14.466,0,0,1-4.169-10.227,14.648,14.648,0,0,1,1.39-6.249,20.7,20.7,0,0,1,1.08-1.858.313.313,0,0,0-.31-.484A15.287,15.287,0,0,0,5.625,19.667,15.21,15.21,0,0,0,20.72,34.991a14.969,14.969,0,0,0,11.506-5.407,14.5,14.5,0,0,0,1.3-1.731.32.32,0,0,0-.326-.484A13.56,13.56,0,0,1,31.145,27.543Z" transform="translate(-5.625 -4.496)" fill="#023047"/>
</svg>
