<svg xmlns="http://www.w3.org/2000/svg" width="40.03" height="40.03" viewBox="0 0 40.03 40.03">
  <path id="sun" d="M24.168,2.25H20.353V7.969h3.815V2.25ZM35.7,6.155,32.272,9.586l2.672,2.672,3.431-3.431L35.7,6.155Zm-26.877,0L6.155,8.826l3.431,3.431,2.672-2.672L8.826,6.155Zm13.439,4.673A11.437,11.437,0,1,0,33.7,22.265,11.471,11.471,0,0,0,22.265,10.828ZM42.28,20.362H36.561v3.815H42.28V20.362Zm-34.311,0H2.25v3.815H7.969V20.362ZM34.944,32.272l-2.672,2.672L35.7,38.375,38.375,35.7l-3.431-3.431Zm-25.358,0L6.155,35.7l2.672,2.672,3.431-3.431L9.586,32.272Zm14.582,4.289H20.353V42.28h3.815V36.561Z" transform="translate(-2.25 -2.25)" fill="#f1faee"/>
</svg>
